<svg id="visual" viewBox="0 0 900 450" width="900" height="450" xmlns="http://www.w3.org/2000/svg" xmlns:xlink="http://www.w3.org/1999/xlink" version="1.1"><rect x="0" y="0" width="900" height="450" fill="#ffffff"></rect><path d="M0 293L11.5 280.5C23 268 46 243 69 238C92 233 115 248 138.2 256.3C161.3 264.7 184.7 266.3 207.8 275C231 283.7 254 299.3 277 293.7C300 288 323 261 346 249.3C369 237.7 392 241.3 415.2 253.8C438.3 266.3 461.7 287.7 484.8 295C508 302.3 531 295.7 554 289C577 282.3 600 275.7 623 277.8C646 280 669 291 692.2 293.8C715.3 296.7 738.7 291.3 761.8 289.2C785 287 808 288 831 277.2C854 266.3 877 243.7 888.5 232.3L900 221L900 451L888.5 451C877 451 854 451 831 451C808 451 785 451 761.8 451C738.7 451 715.3 451 692.2 451C669 451 646 451 623 451C600 451 577 451 554 451C531 451 508 451 484.8 451C461.7 451 438.3 451 415.2 451C392 451 369 451 346 451C323 451 300 451 277 451C254 451 231 451 207.8 451C184.7 451 161.3 451 138.2 451C115 451 92 451 69 451C46 451 23 451 11.5 451L0 451Z" fill="#FAFFC5" stroke-linecap="round" stroke-linejoin="miter"></path></svg>