<svg id="visual" viewBox="0 0 900 80" width="900" height="80" xmlns="http://www.w3.org/2000/svg" xmlns:xlink="http://www.w3.org/1999/xlink" version="1.1"><rect x="0" y="0" width="900" height="80" fill="#ffffff"></rect><path d="M0 41L6.5 41.8C13 42.7 26 44.3 39 46.3C52 48.3 65 50.7 78 51.5C91 52.3 104 51.7 117.2 50C130.3 48.3 143.7 45.7 156.8 44C170 42.3 183 41.7 196 39.2C209 36.7 222 32.3 235 31.7C248 31 261 34 274 37.3C287 40.7 300 44.3 313 43.7C326 43 339 38 352 35C365 32 378 31 391 33.3C404 35.7 417 41.3 430.2 41.3C443.3 41.3 456.7 35.7 469.8 33C483 30.3 496 30.7 509 34C522 37.3 535 43.7 548 42.7C561 41.7 574 33.3 587 30.8C600 28.3 613 31.7 626 35.8C639 40 652 45 665 48.2C678 51.3 691 52.7 704 52.5C717 52.3 730 50.7 743.2 50.2C756.3 49.7 769.7 50.3 782.8 46.7C796 43 809 35 822 31C835 27 848 27 861 31C874 35 887 43 893.5 47L900 51L900 81L893.5 81C887 81 874 81 861 81C848 81 835 81 822 81C809 81 796 81 782.8 81C769.7 81 756.3 81 743.2 81C730 81 717 81 704 81C691 81 678 81 665 81C652 81 639 81 626 81C613 81 600 81 587 81C574 81 561 81 548 81C535 81 522 81 509 81C496 81 483 81 469.8 81C456.7 81 443.3 81 430.2 81C417 81 404 81 391 81C378 81 365 81 352 81C339 81 326 81 313 81C300 81 287 81 274 81C261 81 248 81 235 81C222 81 209 81 196 81C183 81 170 81 156.8 81C143.7 81 130.3 81 117.2 81C104 81 91 81 78 81C65 81 52 81 39 81C26 81 13 81 6.5 81L0 81Z" fill="#FAFFC5" stroke-linecap="round" stroke-linejoin="miter"></path></svg>