<svg id="visual" viewBox="0 0 960 750" width="960" height="750" xmlns="http://www.w3.org/2000/svg" xmlns:xlink="http://www.w3.org/1999/xlink" version="1.1"><rect x="0" y="0" width="960" height="750" fill="#ffffff"></rect><defs><linearGradient id="grad1_0" x1="21.9%" y1="0%" x2="100%" y2="100%"><stop offset="24.4%" stop-color="#ffffff" stop-opacity="1"></stop><stop offset="75.6%" stop-color="#ffffff" stop-opacity="1"></stop></linearGradient></defs><defs><linearGradient id="grad2_0" x1="0%" y1="0%" x2="78.1%" y2="100%"><stop offset="24.4%" stop-color="#ffffff" stop-opacity="1"></stop><stop offset="75.6%" stop-color="#ffffff" stop-opacity="1"></stop></linearGradient></defs><g transform="translate(960, 0)"><path d="M0 243.6C-30.1 247.3 -60.2 250.9 -75.3 231.7C-90.3 212.5 -90.3 170.6 -112.9 155.3C-135.4 140.1 -180.4 151.6 -189.3 137.5C-198.2 123.5 -171 83.7 -174 56.6C-177.1 29.4 -210.4 14.7 -243.6 0L0 0Z" fill="#FAFFC5"></path></g><g transform="translate(0, 750)"><path d="M0 -243.6C18.5 -223.5 37 -203.3 65.2 -200.7C93.4 -198.1 131.3 -213.1 143.2 -197.1C155.2 -181.1 141.2 -134.1 151.3 -109.9C161.4 -85.7 195.5 -84.4 214.9 -69.8C234.3 -55.3 239 -27.7 243.6 0L0 0Z" fill="#FAFFC5"></path></g></svg>