<svg id="visual" viewBox="0 0 900 450" width="900" height="450" xmlns="http://www.w3.org/2000/svg" xmlns:xlink="http://www.w3.org/1999/xlink" version="1.1"><rect x="0" y="0" width="900" height="450" fill="#ffffff"></rect><path d="M0 58L11.5 62.7C23 67.3 46 76.7 69 78.5C92 80.3 115 74.7 138.2 71.5C161.3 68.3 184.7 67.7 207.8 64.3C231 61 254 55 277 57.2C300 59.3 323 69.7 346 74.2C369 78.7 392 77.3 415.2 72.7C438.3 68 461.7 60 484.8 57.2C508 54.3 531 56.7 554 59C577 61.3 600 63.7 623 62.8C646 62 669 58 692.2 57C715.3 56 738.7 58 761.8 58.8C785 59.7 808 59.3 831 63.3C854 67.3 877 75.7 888.5 79.8L900 84L900 0L888.5 0C877 0 854 0 831 0C808 0 785 0 761.8 0C738.7 0 715.3 0 692.2 0C669 0 646 0 623 0C600 0 577 0 554 0C531 0 508 0 484.8 0C461.7 0 438.3 0 415.2 0C392 0 369 0 346 0C323 0 300 0 277 0C254 0 231 0 207.8 0C184.7 0 161.3 0 138.2 0C115 0 92 0 69 0C46 0 23 0 11.5 0L0 0Z" fill="#FAFFC5" stroke-linecap="round" stroke-linejoin="miter"></path></svg>